<?xml version="1.0" encoding="iso-8859-1"?>
<!-- Generator: Adobe Illustrator 19.0.0, SVG Export Plug-In . SVG Version: 6.00 Build 0)  -->
<svg version="1.1" id="Layer_1" xmlns="http://www.w3.org/2000/svg" xmlns:xlink="http://www.w3.org/1999/xlink" x="0px" y="0px"
	 viewBox="0 0 511.68 511.68" style="enable-background:new 0 0 511.68 511.68;" xml:space="preserve">
<g>
	<g>
		<g>
			<path d="M299.575,383.787c5.547,1.813,11.627-1.173,13.44-6.72c11.2-33.92,41.28-56.64,74.667-56.64
				c29.653,0,58.027,17.173,72.533,42.24h-28.267c-5.333,0-10.133,3.84-10.88,9.067c-0.96,6.613,4.16,12.267,10.56,12.267h53.333
				c5.867,0,10.667-4.8,10.667-10.667V320.32c0-5.333-3.84-10.133-9.067-10.88c-6.613-0.96-12.267,4.16-12.267,10.56v24.96
				c-19.2-27.627-52.16-45.867-86.507-45.867c-42.667,0-80.747,28.693-94.933,71.253
				C290.935,375.893,294.028,381.973,299.575,383.787z"/>
			<path d="M488.802,426.88c-5.547-1.92-11.627,1.067-13.547,6.72c-11.52,33.92-42.453,56.747-77.013,56.747
				c-30.613,0-59.733-17.173-74.667-42.24h33.067c5.333,0,10.133-3.84,10.88-9.067c0.96-6.613-4.16-12.267-10.56-12.267h-53.333
				c-5.867,0-10.667,4.8-10.667,10.667v53.013c0,5.333,3.84,10.133,9.067,10.88c6.613,0.96,12.267-4.16,12.267-10.56v-18.987
				c20.16,24.213,51.413,39.893,84.053,39.893c43.627,0,82.667-28.587,97.173-71.147C497.335,434.88,494.348,428.8,488.802,426.88z"
				/>
			<path d="M260.962,128h96v106.667h21.333V117.333c0-2.88-1.173-5.547-3.093-7.573L268.535,3.093
				C266.508,1.173,263.842,0,260.962,0H26.295c-5.867,0-10.667,4.8-10.667,10.667v448c0,5.867,4.8,10.667,10.667,10.667h234.667V448
				h-224V21.333h213.333v96C250.295,123.2,255.095,128,260.962,128z M271.628,36.373l70.293,70.293h-70.293V36.373z"/>
		</g>
	</g>
</g>
<g>
</g>
<g>
</g>
<g>
</g>
<g>
</g>
<g>
</g>
<g>
</g>
<g>
</g>
<g>
</g>
<g>
</g>
<g>
</g>
<g>
</g>
<g>
</g>
<g>
</g>
<g>
</g>
<g>
</g>
</svg>
