<?xml version="1.0" encoding="iso-8859-1"?>
<!-- Generator: Adobe Illustrator 19.0.0, SVG Export Plug-In . SVG Version: 6.00 Build 0)  -->
<svg version="1.1" id="Layer_1" xmlns="http://www.w3.org/2000/svg" xmlns:xlink="http://www.w3.org/1999/xlink" x="0px" y="0px"
	 viewBox="0 0 512 512" style="enable-background:new 0 0 512 512;" xml:space="preserve">
<g>
	<g>
		<path d="M396.8,384c-4.719,0-8.533,3.823-8.533,8.533c0,14.114-11.486,25.6-25.6,25.6h-39.134l11.034-11.034
			c3.337-3.336,3.337-8.73,0-12.066c-3.336-3.337-8.73-3.337-12.066,0l-25.6,25.6c-3.337,3.337-3.337,8.73,0,12.066l25.6,25.6
			c1.664,1.664,3.849,2.5,6.033,2.5c2.185,0,4.369-0.836,6.033-2.5c3.337-3.336,3.337-8.73,0-12.066L323.533,435.2h39.134
			c23.526,0,42.667-19.14,42.667-42.667C405.333,387.823,401.519,384,396.8,384z"/>
	</g>
</g>
<g>
	<g>
		<path d="M394.3,335.3l-25.6-25.6c-3.337-3.336-8.73-3.336-12.066,0c-3.337,3.337-3.337,8.73,0,12.066l11.034,11.034h-39.134
			c-23.526,0-42.667,19.14-42.667,42.667c0,4.71,3.814,8.533,8.533,8.533s8.533-3.823,8.533-8.533c0-14.114,11.486-25.6,25.6-25.6
			h39.134L356.634,360.9c-3.337,3.337-3.337,8.73,0,12.066c1.664,1.664,3.849,2.5,6.033,2.5c2.185,0,4.369-0.836,6.033-2.5
			l25.6-25.6C397.636,344.03,397.636,338.637,394.3,335.3z"/>
	</g>
</g>
<g>
	<g>
		<path d="M345.6,256c-70.579,0-128,57.421-128,128s57.421,128,128,128s128-57.421,128-128S416.179,256,345.6,256z M345.6,494.933
			c-61.167,0-110.933-49.766-110.933-110.933S284.433,273.067,345.6,273.067S456.533,322.833,456.533,384
			S406.767,494.933,345.6,494.933z"/>
	</g>
</g>
<g>
	<g>
		<path d="M226.133,469.333H55.467V409.6c0-4.71-3.823-8.533-8.533-8.533c-4.71,0-8.533,3.823-8.533,8.533v68.267
			c0,4.71,3.823,8.533,8.533,8.533h179.2c4.71,0,8.533-3.823,8.533-8.533S230.844,469.333,226.133,469.333z"/>
	</g>
</g>
<g>
	<g>
		<path d="M46.933,366.933c-4.71,0-8.533,3.823-8.533,8.533S42.223,384,46.933,384h0.085c4.71,0,8.491-3.823,8.491-8.533
			S51.644,366.933,46.933,366.933z"/>
	</g>
</g>
<g>
	<g>
		<path d="M394.3,139.034L257.766,2.5c-1.596-1.604-3.772-2.5-6.033-2.5h-204.8C42.223,0,38.4,3.823,38.4,8.533v332.8
			c0,4.71,3.823,8.533,8.533,8.533c4.71,0,8.533-3.823,8.533-8.533V17.067H243.2v128c0,4.71,3.823,8.533,8.533,8.533h128v76.8
			c0,4.71,3.823,8.533,8.533,8.533s8.533-3.823,8.533-8.533v-85.333C396.8,142.805,395.904,140.629,394.3,139.034z M260.267,136.533
			V29.133l107.401,107.401H260.267z"/>
	</g>
</g>
<g>
</g>
<g>
</g>
<g>
</g>
<g>
</g>
<g>
</g>
<g>
</g>
<g>
</g>
<g>
</g>
<g>
</g>
<g>
</g>
<g>
</g>
<g>
</g>
<g>
</g>
<g>
</g>
<g>
</g>
</svg>
